. 
  
http://www.torrenting.com/        :     Greatest Movie Tracker on The Net!!!
 
http://www.Torrenting.com          :     Once & For all ;)


               www . Torrenting . Com 

(((((((((((((= Enjoy No RAR releases =))))))))))))))))))))


...................................NFO:....................................

.[img]http://img839.imageshack.us/img839/6936/burningpalmsbluray72951.jpg[/img]

[color=blue][size=5][b]Burning.Palms.2010.BDRip.XVID.AC3.HQ.Hive-CM8[/b][/size][/color]



[b]Thx Hive

CM8 Doing It Right The First Time :D

Source: Bluray

Video: 720x400 @bitrate 1700 2pass
Audio: DTS to AC3 5.1 @448
Sample: yes included
Subs: yes english in srt /subs[/b]


[url]http://www.imdb.com/title/tt1283887/[/url]


General
Complete name                    : Burning.Palms.2010.BDRip.XVID.AC3.HQ.Hive-CM8.avi
Format                           : AVI
Format/Info                      : Audio Video Interleave
File size                        : 1.68 GiB
Duration                         : 1h 51mn
Overall bit rate                 : 2 157 Kbps
Writing application              : Nandub v1.0rc2
Writing library                  : Nandub build 1853/release

Video
ID                               : 0
Format                           : MPEG-4 Visual
Format profile                   : Advanced Simple@L5
Format settings, BVOP            : 1
Format settings, QPel            : Yes
Format settings, GMC             : No warppoints
Format settings, Matrix          : Default (H.263)
Muxing mode                      : Packed bitstream
Codec ID                         : XVID
Codec ID/Hint                    : XviD
Duration                         : 1h 51mn
Bit rate                         : 1 700 Kbps
Width                            : 720 pixels
Height                           : 400 pixels
Display aspect ratio             : 16:9
Frame rate                       : 23.976 fps
Color space                      : YUV
Chroma subsampling               : 4:2:0
Bit depth                        : 8 bits
Scan type                        : Progressive
Compression mode                 : Lossy
Bits/(Pixel*Frame)               : 0.246
Stream size                      : 1.33 GiB (79%)
Writing library                  : XviD 1.2.1 (UTC 2008-12-04)

Audio
ID                               : 1
Format                           : AC-3
Format/Info                      : Audio Coding 3
Mode extension                   : CM (complete main)
Codec ID                         : 2000
Duration                         : 1h 51mn
Bit rate mode                    : Constant
Bit rate                         : 448 Kbps
Channel(s)                       : 6 channels
Channel positions                : Front: L C R, Side: L R, LFE
Sampling rate                    : 48.0 KHz
Bit depth                        : 16 bits
Compression mode                 : Lossy
Stream size                      : 358 MiB (21%)
Alignment                        : Split accross interleaves
Interleave, duration             : 42 ms (1.00 video frame)
Interleave, preload duration     : 500 ms


Zoe Saldana	 ... 	Sarah Cotton
Jamie Chung	... 	Ginny Bai
Lake Bell	... 	Maryjane
Rosamund Pike	... 	Dedra Davenport
Paz Vega	... 	Blanca Juarez
Shannen Doherty	... 	Dr. Shelly


A subversive tale that interlaces five stories set in Los Angeles, 
where no taboo is left unexplored as each character careens toward a dark and often comic fate. 


[img]http://img821.imageshack.us/img821/9548/bbuu.png[/img]
[img]http://img577.imageshack.us/img577/3509/58596799.png[/img]
[img]http://img849.imageshack.us/img849/1363/bbubbuubuu.png[/img]
[img]http://img839.imageshack.us/img839/1791/bbubbuuu.png[/img]
[img]http://img860.imageshack.us/img860/4269/bbubuu.png[/img]
[img]http://img848.imageshack.us/img848/3850/bbubbuubbuuu.png[/img]
[img]http://img855.imageshack.us/img855/7701/bbubbubuubbuuu.png[/img]
[img]http://img3.imageshack.us/img3/7109/bbubbububuubbuuu.png[/img]





Greetz

ViSiON,SANTi,MAGNET,THC,T0XiC,iNK,LKRG,IMAGiNE,WBZ,FLAWL3SS,NOVA
Vik,OneTwo,Rapeseed,D2U,SAFC,goldadvance,MEMORY100,KaN1vE,Unevano,Pinnz,Wayne,Mr Hive
and all P2P groups 
Great Work Guys :D

FYS

CM8@hushmail.com